<?xml version="1.0" encoding="UTF-8" standalone="no"?>
<!-- Created with Inkscape (http://www.inkscape.org/) -->

<svg
   width="55.159107mm"
   height="69.581894mm"
   viewBox="0 0 55.159107 69.581894"
   version="1.1"
   id="svg1"
   inkscape:version="1.4.2 (ebf0e940d0, 2025-05-08)"
   sodipodi:docname="document.svg"
   xmlns:inkscape="http://www.inkscape.org/namespaces/inkscape"
   xmlns:sodipodi="http://sodipodi.sourceforge.net/DTD/sodipodi-0.dtd"
   xmlns="http://www.w3.org/2000/svg"
   xmlns:svg="http://www.w3.org/2000/svg">
  <sodipodi:namedview
     id="namedview1"
     pagecolor="#ffffff"
     bordercolor="#000000"
     borderopacity="0.25"
     inkscape:showpageshadow="2"
     inkscape:pageopacity="0.0"
     inkscape:pagecheckerboard="0"
     inkscape:deskcolor="#d1d1d1"
     inkscape:document-units="mm"
     inkscape:zoom="0.80711279"
     inkscape:cx="253.37227"
     inkscape:cy="327.09183"
     inkscape:window-width="2048"
     inkscape:window-height="1206"
     inkscape:window-x="0"
     inkscape:window-y="0"
     inkscape:window-maximized="1"
     inkscape:current-layer="layer1" />
  <defs
     id="defs1" />
  <g
     inkscape:label="Calque 1"
     inkscape:groupmode="layer"
     id="layer1"
     transform="translate(-38.014465,-61.867243)">
    <path
       d="m 49.958306,131.17331 c -3.199421,-0.16531 -5.199274,-0.43831 -6.093275,-0.8318 -2.149477,-0.94601 -4.025845,-2.89205 -4.912588,-5.095 l -0.805484,-2.00104 -0.111366,-24.427255 c -0.06702,-14.70134 0.0287,-25.681782 0.240419,-27.57813 0.412888,-3.698161 1.203632,-5.457244 3.234571,-7.195662 2.408132,-2.061263 3.451913,-2.182918 18.678287,-2.176992 15.217642,0.0058 15.059078,-0.0164 18.499111,2.606517 0.98208,0.748823 4.103052,3.642492 6.935493,6.430381 4.318318,4.250425 5.343684,5.46653 6.35,7.531338 l 1.200097,2.462398 -0.0058,21.350095 c -0.0053,19.23201 -0.06517,21.49938 -0.6037,22.855 -0.914691,2.30254 -2.329762,3.92118 -4.301993,4.92088 -1.564852,0.79322 -2.437686,0.94345 -6.906495,1.18877 -6.059805,0.33266 -24.64726,0.30927 -31.397231,-0.0395 z m 22.042172,-15.38015 c 0.80944,-0.80941 0.538718,-1.99414 -0.522737,-2.28764 -1.386972,-0.38354 -19.243675,-0.35724 -20.261738,0.0298 -1.039072,0.39505 -1.165119,1.25317 -0.321072,2.18583 0.539379,0.596 1.34321,0.64513 10.558118,0.64513 8.735774,0 10.045462,-0.0712 10.547429,-0.57314 z m 6.899698,-7.12846 c 1.003486,-0.81256 0.744564,-2.33796 -0.45122,-2.65837 -1.059259,-0.28385 -25.268925,-0.28562 -26.68725,-0.003 -1.501537,0.30031 -1.90926,1.72906 -0.759169,2.66034 0.741442,0.60039 1.727306,0.64603 13.948833,0.64603 12.221501,0 13.207391,-0.0456 13.948806,-0.64603 z m -8.773133,-6.99336 c 0.802878,-0.7266 0.832988,-1.995875 0.06255,-2.636145 -0.832538,-0.69188 -17.531212,-0.88492 -18.820183,-0.21759 -1.085479,0.562 -1.32125,1.856765 -0.50284,2.761105 0.572955,0.6331 1.189275,0.67649 9.613767,0.67649 7.881011,0 9.081902,-0.0727 9.646708,-0.58386 z"
       style="fill:#000000;stroke-width:0.264583"
       id="path1" />
  </g>
</svg>
