<?xml version="1.0" encoding="UTF-8" standalone="no"?>
<!-- Created with Inkscape (http://www.inkscape.org/) -->

<svg
   width="72.454117mm"
   height="69.620361mm"
   viewBox="0 0 72.454117 69.620361"
   version="1.1"
   id="svg1"
   inkscape:version="1.4.2 (ebf0e940d0, 2025-05-08)"
   sodipodi:docname="graph.svg"
   xmlns:inkscape="http://www.inkscape.org/namespaces/inkscape"
   xmlns:sodipodi="http://sodipodi.sourceforge.net/DTD/sodipodi-0.dtd"
   xmlns="http://www.w3.org/2000/svg"
   xmlns:svg="http://www.w3.org/2000/svg">
  <sodipodi:namedview
     id="namedview1"
     pagecolor="#ffffff"
     bordercolor="#000000"
     borderopacity="0.25"
     inkscape:showpageshadow="2"
     inkscape:pageopacity="0.0"
     inkscape:pagecheckerboard="0"
     inkscape:deskcolor="#d1d1d1"
     inkscape:document-units="mm"
     inkscape:zoom="0.80711279"
     inkscape:cx="58.851749"
     inkscape:cy="182.13068"
     inkscape:window-width="2048"
     inkscape:window-height="1206"
     inkscape:window-x="0"
     inkscape:window-y="0"
     inkscape:window-maximized="1"
     inkscape:current-layer="layer1" />
  <defs
     id="defs1" />
  <g
     inkscape:label="Calque 1"
     inkscape:groupmode="layer"
     id="layer1"
     transform="translate(-89.369973,-100.34714)">
    <path
       d="m 124.47134,169.8006 c -4.55022,-1.24182 -7.22135,-4.59155 -7.22849,-9.06489 -0.006,-3.8849 1.35974,-6.44078 4.80068,-8.98276 l 1.93855,-1.43209 -0.10814,-7.23511 c -0.10006,-6.69395 -0.15954,-7.27265 -0.7952,-7.73689 -0.86834,-0.63421 -1.00428,-0.58666 -5.80279,2.0289 -4.11044,2.24055 -4.2948,2.43367 -4.99626,5.23373 -0.55624,2.22035 -3.16971,4.73458 -5.42047,5.21462 -2.84977,0.6078 -5.17125,-0.32256 -6.80913,-2.72884 -2.177335,-3.19883 -0.8169,-7.54845 2.88721,-9.23102 1.7198,-0.78118 3.40154,-0.831 5.61057,-0.16616 1.62087,0.48779 1.69148,0.47546 3.84845,-0.67307 5.09794,-2.71452 6.45075,-3.59804 6.88258,-4.49508 0.90622,-1.88244 0.39002,-2.44719 -5.50937,-6.02766 -7.58394,-4.60283 -6.92221,-4.38386 -9.78585,-3.23821 -1.93233,0.77306 -2.81334,0.93168 -4.557476,0.82063 -5.320083,-0.33877 -10.056231,-4.96088 -10.056231,-9.81408 0,-1.84463 1.102254,-4.63272 2.401147,-6.07362 3.639264,-4.03709 9.64996,-4.13388 13.56537,-0.21847 2.39567,2.39567 3.42847,4.7687 3.43281,7.88745 l 0.003,2.47732 6.2814,3.78449 c 3.45477,2.08145 6.59802,3.78449 6.985,3.78449 1.36144,0 1.55027,-0.65029 1.55027,-5.3382 v -4.49154 l -1.05699,-0.75264 c -1.48219,-1.05542 -2.81016,-3.48776 -3.06115,-5.60684 -0.67812,-5.72579 5.06564,-9.362357 9.81898,-6.21673 3.65326,2.41763 3.5541,8.28969 -0.19923,11.7959 -0.88918,0.83066 -0.91551,0.97956 -0.91551,5.17945 v 4.32422 l 1.08654,0.77367 c 0.59759,0.42553 1.43102,0.76909 1.85208,0.76348 0.90998,-0.0122 10.44874,-5.16826 11.0843,-5.99159 0.24254,-0.3142 0.44254,-1.13623 0.44442,-1.82677 0.008,-2.83101 3.10599,-7.14552 6.11089,-8.50987 0.95444,-0.43336 2.275,-0.66913 3.76344,-0.67191 9.25906,-0.0175 12.78181,11.55078 5.11529,16.79774 -2.46475,1.68687 -6.47152,2.34574 -9.03139,1.48513 -0.65955,-0.22175 -1.95387,-0.93631 -2.87629,-1.58793 -1.97548,-1.39557 -1.45375,-1.53418 -8.15739,2.16747 -6.47967,3.57799 -6.46261,3.73682 0.87019,8.10138 l 3.96539,2.36027 1.43229,-0.64471 c 0.92237,-0.41518 2.2615,-0.64439 3.76135,-0.64378 1.94897,0 2.56815,0.15915 3.79423,0.97052 4.82126,3.19058 3.29834,10.3524 -2.48637,11.69273 -2.90976,0.67418 -6.86528,-1.9766 -7.91401,-5.30355 -0.68143,-2.16178 -0.69821,-2.17683 -5.93579,-5.32855 -4.51305,-2.71571 -4.943,-2.84607 -6.02724,-1.8275 -0.84338,0.79232 -0.85188,0.86783 -0.84653,7.52983 0.003,3.7012 0.12205,6.90197 0.26458,7.11279 0.14256,0.21082 1.01494,0.82222 1.93866,1.35864 7.01545,4.07416 6.81648,14.67786 -0.33145,17.66445 -1.56697,0.65471 -4.23553,0.91805 -5.58136,0.55076 z"
       style="fill:#000000;stroke-width:0.264583"
       id="path1" />
  </g>
</svg>
