<?xml version="1.0" encoding="UTF-8" standalone="no"?>
<!-- Created with Inkscape (http://www.inkscape.org/) -->

<svg
   width="195.85243mm"
   height="169.05876mm"
   viewBox="0 0 195.85243 169.05876"
   version="1.1"
   id="svg1"
   xml:space="preserve"
   inkscape:version="1.4.2 (ebf0e940d0, 2025-05-08)"
   sodipodi:docname="hybrid.svg"
   xmlns:inkscape="http://www.inkscape.org/namespaces/inkscape"
   xmlns:sodipodi="http://sodipodi.sourceforge.net/DTD/sodipodi-0.dtd"
   xmlns="http://www.w3.org/2000/svg"
   xmlns:svg="http://www.w3.org/2000/svg"><sodipodi:namedview
     id="namedview1"
     pagecolor="#ffffff"
     bordercolor="#000000"
     borderopacity="0.25"
     inkscape:showpageshadow="2"
     inkscape:pageopacity="0.0"
     inkscape:pagecheckerboard="0"
     inkscape:deskcolor="#d1d1d1"
     inkscape:document-units="mm"
     inkscape:zoom="0.80711279"
     inkscape:cx="343.81812"
     inkscape:cy="148.6781"
     inkscape:window-width="2048"
     inkscape:window-height="1206"
     inkscape:window-x="0"
     inkscape:window-y="0"
     inkscape:window-maximized="1"
     inkscape:current-layer="layer1" /><defs
     id="defs1" /><g
     inkscape:label="Calque 1"
     inkscape:groupmode="layer"
     id="layer1"
     transform="translate(-14.154931,-109.26952)"><path
       style="fill:#000000"
       d="m 177.13816,277.81093 c -1.27625,-0.67455 -2.52839,-2.14517 -2.86814,-3.3686 -0.15265,-0.54968 -0.27821,-3.16552 -0.27902,-5.81298 l -0.001,-4.81356 -11.70782,-0.0812 -11.70781,-0.0812 -1.5875,-0.74143 c -1.92541,-0.89925 -3.38032,-2.25275 -4.32234,-4.02107 l -0.70474,-1.32291 -0.0716,-30.36094 -0.0716,-30.36094 H 129.00534 114.1941 v 9.10456 c 0,8.11216 -0.0533,9.2758 -0.48901,10.67572 -1.07787,3.4632 -3.76388,6.00199 -9.16828,8.66575 -6.761742,3.33278 -14.913952,5.41623 -26.061462,6.66051 -5.872353,0.65547 -21.991705,0.65579 -27.78125,5.6e-4 -19.418289,-2.19768 -32.379222,-7.45191 -35.693043,-14.4696 l -0.687164,-1.45521 -0.07948,-13.73303 -0.07948,-13.73303 1.576042,1.45914 c 6.265537,5.80078 18.358296,9.95817 34.257644,11.7775 5.912729,0.67659 22.999556,0.66712 28.751313,-0.0159 15.89642,-1.88776 27.64866,-6.02779 33.80052,-11.90711 l 1.65365,-1.58038 v 1.62944 1.62944 h 14.81228 14.81229 l 0.0705,-30.22865 0.0705,-30.22864 0.73548,-1.49769 c 0.88572,-1.80361 2.38629,-3.21892 4.39214,-4.14262 l 1.48696,-0.68474 11.70781,0.0222 11.70782,0.0222 v -5.7979 c 0,-6.29844 0.13399,-7.0471 1.52035,-8.49448 0.38419,-0.40111 1.12201,-0.84693 1.63961,-0.99071 0.56244,-0.15625 6.32684,-0.26203 14.32707,-0.26291 l 13.38599,-0.001 1.15214,0.60926 c 0.78748,0.41644 1.34497,0.97392 1.7614,1.76141 l 0.60927,1.15214 v 13.85751 c 0,11.0402 -0.0727,14.03144 -0.35747,14.71304 -0.47455,1.13577 -2.06655,2.50269 -3.1426,2.69828 -0.47606,0.0865 -6.94711,0.12218 -14.38013,0.0792 l -13.51456,-0.0781 -1.00017,-0.76303 c -1.77213,-1.35197 -1.98846,-2.22315 -1.99509,-8.03436 l -0.006,-5.09323 h -11.12564 c -12.28313,0 -12.23596,-0.006 -13.1454,1.65812 -0.4347,0.7954 -0.4675,2.19218 -0.4675,19.90542 v 19.05 l 11.64166,0.0668 11.64167,0.0668 0.45921,-1.91892 c 1.56814,-6.55293 6.84124,-11.79084 13.696,-13.6046 2.29982,-0.60854 6.696,-0.60854 8.99583,0 8.59121,2.27323 14.33336,9.61048 14.32182,18.30026 -0.0119,8.96276 -5.92744,16.32202 -14.67599,18.25778 -3.00754,0.66546 -7.53407,0.4449 -10.20407,-0.49722 -3.84157,-1.3555 -7.49774,-4.16796 -9.66715,-7.43631 -1.20573,-1.81651 -2.40142,-4.75419 -2.66758,-6.55394 l -0.18586,-1.25677 h -11.74392 -11.74392 v 21.03438 21.03437 h 15.19136 15.19135 l 4.70688,-8.09939 c 2.69607,-4.63927 4.98085,-8.2789 5.34818,-8.51958 0.88506,-0.57992 2.27983,-0.52586 3.14754,0.12198 0.3994,0.29819 1.07027,1.12567 1.49082,1.83885 1.71113,2.90173 8.69494,14.92465 12.12152,20.86768 3.04844,5.28719 3.65635,6.51919 3.65553,7.40833 -10e-4,1.30243 -0.75641,2.6106 -1.91482,3.31689 -0.83525,0.50926 -1.36342,0.52579 -16.82962,0.52675 -17.64774,0.001 -17.13087,0.0485 -18.36759,-1.68527 -1.10885,-1.55453 -0.85763,-2.75374 1.36502,-6.51582 1.07468,-1.81901 2.00418,-3.39659 2.06555,-3.50573 0.0614,-0.10914 -6.02715,-0.19844 -13.53006,-0.19844 h -13.64166 l 0.001,15.54427 c 9.3e-4,9.78639 0.1018,15.9055 0.27232,16.51945 0.14897,0.53635 0.63369,1.28049 1.07716,1.65365 l 0.80631,0.67846 h 11.32906 11.32906 l 0.10416,-4.16718 c 0.11205,-4.48272 0.38687,-5.5042 1.84738,-6.86654 1.49169,-1.39143 1.6044,-1.40169 15.3933,-1.40169 14.08501,0 13.84526,-0.0254 15.43938,1.63296 1.68047,1.74815 1.66706,1.62929 1.66706,14.7712 0,10.16331 -0.0605,12.06791 -0.4095,12.90333 -0.5212,1.2474 -1.31537,2.09634 -2.55652,2.73284 -0.92711,0.47544 -1.71363,0.50277 -14.15521,0.49172 -12.42584,-0.011 -13.22762,-0.0403 -14.12597,-0.51508 z M 54.927031,268.79967 C 38.00936,267.57568 23.700663,263.42656 17.910764,258.066 c -1.338573,-1.23931 -2.105152,-2.21837 -2.729322,-3.48585 l -0.867951,-1.7625 -0.07707,-13.76445 -0.07707,-13.76445 1.267698,1.22583 c 6.068291,5.86789 18.190299,10.1385 34.07603,12.00508 8.454664,0.99343 21.173358,0.98863 29.897915,-0.0113 15.48756,-1.77501 27.381816,-5.92097 33.299866,-11.60726 l 1.5109,-1.45174 -0.0752,13.67801 -0.0752,13.67802 -0.69722,1.48696 c -1.29436,2.76048 -3.82191,4.94748 -8.29861,7.18048 -6.479676,3.2321 -15.472386,5.59653 -25.929156,6.81749 -5.465732,0.63819 -18.606942,0.91466 -24.209377,0.50932 z m 1.12262,-73.27062 c -15.559107,-0.97497 -29.242663,-4.45712 -36.246174,-9.22383 -2.007304,-1.3662 -4.188356,-3.70646 -4.909462,-5.26783 -0.571596,-1.23764 -0.581708,-1.4763 -0.657571,-15.51886 l -0.07705,-14.26189 1.783546,1.66842 c 6.744723,6.30936 18.344788,10.18095 35.809088,11.95151 4.474458,0.45363 21.057917,0.45691 25.399997,0.005 17.27737,-1.79806 28.766085,-5.68275 35.264595,-11.92405 l 1.7948,-1.72377 -0.075,14.27332 c -0.0741,14.10869 -0.0818,14.28784 -0.66193,15.53246 -2.69683,5.78556 -13.786685,10.89282 -28.572395,13.15857 -8.15099,1.24905 -20.827277,1.83379 -28.852437,1.33092 z M 55.191614,158.30531 C 34.651468,156.86138 18.637738,151.25132 15.216786,144.301 c -0.959744,-1.94991 -0.898962,-4.51372 0.152255,-6.42214 3.237567,-5.87759 16.819974,-11.03447 34.00174,-12.90955 6.166746,-0.67299 23.191026,-0.68031 29.039807,-0.0125 18.72588,2.13817 31.792492,7.10135 34.850212,13.23739 0.89764,1.80134 0.93465,4.48631 0.0861,6.24693 -0.66357,1.3768 -2.65729,3.46876 -4.525,4.74796 -6.42968,4.40371 -19.750172,8.02961 -33.125072,9.01679 -3.313844,0.24459 -17.464101,0.31319 -20.505204,0.0994 z"
       id="path1" /></g></svg>
