<?xml version="1.0" encoding="UTF-8" standalone="no"?>
<!-- Created with Inkscape (http://www.inkscape.org/) -->

<svg
   width="59.402859mm"
   height="59.496128mm"
   viewBox="0 0 59.402859 59.496128"
   version="1.1"
   id="svg1"
   inkscape:version="1.4.2 (ebf0e940d0, 2025-05-08)"
   sodipodi:docname="key-value.svg"
   xmlns:inkscape="http://www.inkscape.org/namespaces/inkscape"
   xmlns:sodipodi="http://sodipodi.sourceforge.net/DTD/sodipodi-0.dtd"
   xmlns="http://www.w3.org/2000/svg"
   xmlns:svg="http://www.w3.org/2000/svg">
  <sodipodi:namedview
     id="namedview1"
     pagecolor="#ffffff"
     bordercolor="#000000"
     borderopacity="0.25"
     inkscape:showpageshadow="2"
     inkscape:pageopacity="0.0"
     inkscape:pagecheckerboard="0"
     inkscape:deskcolor="#d1d1d1"
     inkscape:document-units="mm"
     inkscape:zoom="0.80711279"
     inkscape:cx="-115.84502"
     inkscape:cy="-56.993273"
     inkscape:window-width="2048"
     inkscape:window-height="1206"
     inkscape:window-x="0"
     inkscape:window-y="0"
     inkscape:window-maximized="1"
     inkscape:current-layer="layer1" />
  <defs
     id="defs1" />
  <g
     inkscape:label="Calque 1"
     inkscape:groupmode="layer"
     id="layer1"
     transform="translate(-135.80044,-163.61708)">
    <path
       d="m 139.81718,223.00169 c -3.47631,-0.85151 -3.88054,-1.69571 -3.88054,-8.10426 0,-5.79636 0.22693,-6.45896 2.61535,-7.63588 1.41862,-0.69903 2.16133,-0.79727 6.02769,-0.79727 7.34266,0 7.94234,0.58698 7.92895,7.7611 -0.008,4.05723 -0.0995,4.75816 -0.79722,6.07814 -1.18911,2.24968 -2.34137,2.70095 -7.13173,2.793 -2.23132,0.0429 -4.37444,2.1e-4 -4.7625,-0.0948 z m 21.08065,-0.11557 c -2.74357,-0.67238 -3.26536,-1.94307 -3.26536,-7.95173 0,-4.05464 0.10594,-5.00176 0.68696,-6.14061 1.18581,-2.32439 1.22503,-2.3295 17.83387,-2.3295 14.71502,0 14.82691,0.006 16.3108,0.79828 2.49737,1.33429 2.7392,1.99429 2.7392,7.47606 0,5.39779 -0.31604,6.57657 -2.04343,7.62162 -1.06838,0.64637 -1.96863,0.68799 -16.12463,0.74546 -8.24619,0.0335 -15.50802,-0.0653 -16.13741,-0.21958 z M 137.87691,200.5668 c -1.80486,-1.21486 -2.20414,-2.75752 -2.04436,-7.89826 0.15073,-4.84926 0.54089,-5.83883 2.64946,-6.71984 1.51447,-0.6328 9.3055,-0.71231 10.89194,-0.11115 2.66279,1.00902 3.54526,3.51729 3.21297,9.13236 -0.32488,5.48931 -1.21571,6.14836 -8.53641,6.31534 -4.69879,0.10718 -4.99891,0.0723 -6.1736,-0.71845 z m 22.1643,0.20809 c -2.41361,-1.00195 -2.4094,-0.96964 -2.40355,-18.35282 0.006,-16.63054 -0.007,-16.50844 1.87277,-17.90435 0.89733,-0.6663 1.47397,-0.73957 5.82083,-0.73957 3.99608,0 5.02653,0.11007 5.99914,0.6408 2.1509,1.17369 2.17707,1.39525 2.17707,18.43164 0,17.07822 0.0305,16.84298 -2.33087,17.96354 -1.57118,0.74557 -9.31051,0.71829 -11.13539,-0.0392 z m 20.98196,-0.11594 c -2.14947,-1.31061 -2.40043,-2.09163 -2.40043,-7.47067 0,-5.54529 0.34385,-6.42715 2.85591,-7.32424 2.05047,-0.73224 9.88571,-0.6603 11.36438,0.10435 2.10312,1.08757 2.36027,1.90362 2.36027,7.4899 0,4.53922 -0.0703,5.11154 -0.73861,6.01274 -1.09191,1.47246 -2.60487,1.83597 -7.72805,1.85674 -3.94563,0.0161 -4.74356,-0.0774 -5.71347,-0.66882 z m -40.14766,-20.43289 c -1.92627,-0.35941 -3.57463,-1.28196 -4.31819,-2.41681 -0.52138,-0.79574 -0.62068,-1.77811 -0.62068,-6.1404 0,-4.68037 0.0712,-5.28849 0.72115,-6.15902 1.15866,-1.55192 2.93518,-1.97202 7.74551,-1.83172 4.98081,0.14529 6.11958,0.58831 7.30351,2.84134 0.69527,1.32318 0.78552,2.03105 0.79719,6.25454 0.0146,5.2724 -0.19196,5.97945 -2.02573,6.93417 -1.26579,0.659 -7.14666,0.97618 -9.60276,0.5179 z m 41.62779,0.095 c -3.14489,-0.79457 -3.75229,-1.80183 -3.98579,-6.60987 -0.2944,-6.06121 0.84752,-8.87793 3.9514,-9.74696 2.27412,-0.63672 9.20615,-0.34531 10.69546,0.44964 1.85309,0.98906 2.03893,1.65602 2.03893,7.31736 0,5.87891 -0.22106,6.50857 -2.73552,7.79135 -1.20354,0.61399 -2.23827,0.78121 -5.3747,0.86857 -2.13632,0.0595 -4.20174,0.0279 -4.58978,-0.0701 z"
       style="fill:#000000;stroke-width:0.264583"
       id="path1" />
  </g>
</svg>
