<?xml version="1.0" encoding="UTF-8" standalone="no"?>
<!-- Created with Inkscape (http://www.inkscape.org/) -->

<svg
   width="61.158558mm"
   height="61.320312mm"
   viewBox="0 0 61.158558 61.320312"
   version="1.1"
   id="svg1"
   inkscape:version="1.4.2 (ebf0e940d0, 2025-05-08)"
   sodipodi:docname="relational.svg"
   xmlns:inkscape="http://www.inkscape.org/namespaces/inkscape"
   xmlns:sodipodi="http://sodipodi.sourceforge.net/DTD/sodipodi-0.dtd"
   xmlns="http://www.w3.org/2000/svg"
   xmlns:svg="http://www.w3.org/2000/svg">
  <sodipodi:namedview
     id="namedview1"
     pagecolor="#ffffff"
     bordercolor="#000000"
     borderopacity="0.25"
     inkscape:showpageshadow="2"
     inkscape:pageopacity="0.0"
     inkscape:pagecheckerboard="0"
     inkscape:deskcolor="#d1d1d1"
     inkscape:document-units="mm"
     inkscape:zoom="0.80711279"
     inkscape:cx="11.77035"
     inkscape:cy="273.81551"
     inkscape:window-width="2048"
     inkscape:window-height="1206"
     inkscape:window-x="0"
     inkscape:window-y="0"
     inkscape:window-maximized="1"
     inkscape:current-layer="layer1" />
  <defs
     id="defs1" />
  <g
     inkscape:label="Calque 1"
     inkscape:groupmode="layer"
     id="layer1"
     transform="translate(-101.85376,-76.136483)">
    <path
       d="m 105.50954,137.1902 c -3.1374,-0.82484 -3.52778,-1.73109 -3.52778,-8.18989 0,-5.9818 0.21996,-6.56555 3.01927,-8.01274 1.45909,-0.75433 1.92282,-0.80285 6.74296,-0.70557 4.86307,0.0982 5.22902,0.15425 6.05084,0.92726 0.4811,0.45252 1.05209,1.52712 1.26887,2.38802 0.94325,3.746 3.95461,4.07147 5.12303,0.5537 0.31243,-0.94065 1.05036,-2.17247 1.63985,-2.73738 l 1.07178,-1.02711 15.76393,-0.0968 15.76392,-0.0968 1.56685,0.8024 c 2.77758,1.42243 3.01926,2.0464 3.01926,7.79508 0,5.63599 -0.30076,6.79066 -2.04342,7.84495 -1.06596,0.64489 -2.0215,0.69098 -16.47741,0.79499 -8.44021,0.0607 -16.0065,0.0135 -16.81398,-0.10514 -1.82955,-0.26861 -2.9297,-1.33819 -3.73452,-3.63078 -0.45648,-1.30032 -0.87649,-1.86393 -1.61779,-2.17101 -1.54283,-0.63905 -2.54184,0.0296 -3.86913,2.58956 -0.73041,1.40877 -1.50327,2.38818 -2.11057,2.67464 -1.11113,0.52412 -9.22689,0.82574 -10.83596,0.4027 z m 0.61019,-22.22767 c -3.57799,-0.64085 -4.42602,-2.41255 -4.24258,-8.86354 0.18869,-6.635832 0.80166,-7.359679 6.49907,-7.674666 6.88126,-0.380444 9.60407,0.48805 10.67496,3.404976 0.67397,1.83576 2.08696,3.04033 3.16504,2.69814 0.4584,-0.14549 1.15283,-1.09971 1.82447,-2.50701 0.73064,-1.53093 1.41799,-2.444639 2.10702,-2.800954 1.53793,-0.795284 33.04408,-0.789543 34.5831,0.0063 1.89684,0.980894 2.28102,2.257214 2.28128,7.578754 2.5e-4,5.23787 -0.33613,6.60222 -1.88753,7.65572 -0.86696,0.58872 -2.13668,0.63455 -17.57745,0.63455 -16.33808,0 -16.66123,-0.0135 -17.63889,-0.73848 -0.63815,-0.47321 -1.21676,-1.42367 -1.61072,-2.64584 -1.29772,-4.02587 -4.01923,-4.28527 -5.20602,-0.49622 -0.93825,2.99558 -2.27337,3.68485 -7.50489,3.8745 -2.17821,0.079 -4.6383,0.0222 -5.46686,-0.12623 z m -1.13215,-22.357293 c -2.76242,-1.411526 -3.00582,-2.042028 -3.00582,-7.786476 0,-2.750952 0.11945,-5.427741 0.26543,-5.948441 0.14598,-0.520674 0.78098,-1.314424 1.41111,-1.763872 1.02669,-0.732313 1.61641,-0.830103 5.67769,-0.941678 6.72478,-0.184732 8.31482,0.470614 9.46559,3.901255 0.57415,1.711695 1.31252,2.39686 2.58296,2.39686 1.36652,0 2.038,-0.689504 2.88443,-2.961878 0.35727,-0.959115 1.08605,-2.057215 1.63891,-2.469436 0.97232,-0.724958 1.36567,-0.74467 16.84468,-0.844206 10.36546,-0.06668 16.32905,0.0273 17.23625,0.271595 1.01345,0.272891 1.60756,0.728001 2.20532,1.689417 0.75035,1.206791 0.81819,1.710796 0.81819,6.078406 0,5.941615 -0.42367,7.06284 -3.1482,8.331491 l -1.79069,0.833834 -14.68437,0.0034 c -8.07641,0.0026 -15.19001,-0.09768 -15.80801,-0.221297 -1.47582,-0.295143 -3.05713,-1.912911 -3.33913,-3.416088 -0.30528,-1.62732 -1.26754,-2.433717 -2.73619,-2.293012 -1.07486,0.102976 -1.2822,0.326284 -2.33675,2.516717 -1.52379,3.165131 -2.12147,3.41712 -8.1053,3.41712 -3.99475,0 -4.70403,-0.09266 -6.0761,-0.79375 z"
       style="fill:#000000;stroke-width:0.264583"
       id="path1" />
  </g>
</svg>
