<?xml version="1.0" encoding="UTF-8" standalone="no"?>
<!-- Created with Inkscape (http://www.inkscape.org/) -->

<svg
   width="71.945717mm"
   height="73.948982mm"
   viewBox="0 0 71.945717 73.948982"
   version="1.1"
   id="svg1"
   xml:space="preserve"
   inkscape:version="1.4.2 (ebf0e940d0, 2025-05-08)"
   sodipodi:docname="vector.svg"
   xmlns:inkscape="http://www.inkscape.org/namespaces/inkscape"
   xmlns:sodipodi="http://sodipodi.sourceforge.net/DTD/sodipodi-0.dtd"
   xmlns="http://www.w3.org/2000/svg"
   xmlns:svg="http://www.w3.org/2000/svg"><sodipodi:namedview
     id="namedview1"
     pagecolor="#ffffff"
     bordercolor="#000000"
     borderopacity="0.25"
     inkscape:showpageshadow="2"
     inkscape:pageopacity="0.0"
     inkscape:pagecheckerboard="0"
     inkscape:deskcolor="#d1d1d1"
     inkscape:document-units="mm"
     inkscape:zoom="0.70401921"
     inkscape:cx="110.08222"
     inkscape:cy="-93.747442"
     inkscape:window-width="2048"
     inkscape:window-height="1206"
     inkscape:window-x="0"
     inkscape:window-y="0"
     inkscape:window-maximized="1"
     inkscape:current-layer="layer1" /><defs
     id="defs1" /><g
     inkscape:label="Calque 1"
     inkscape:groupmode="layer"
     id="layer1"
     transform="translate(-70.005564,-174.13934)"><path
       style="fill:#000000"
       d="m 89.629204,247.93565 c -1.955394,-0.64124 -3.6681,-2.16346 -4.39701,-3.90799 -0.486197,-1.16363 -0.461567,-3.84517 0.04651,-5.06332 1.274016,-3.05455 5.198416,-4.78558 8.227106,-3.62891 1.39054,0.53105 3.111648,1.97061 3.68758,3.08434 l 0.384464,0.74347 16.134906,0.0702 c 8.87421,0.0386 16.1349,0.009 16.13487,-0.0657 -2e-5,-0.0747 -1.64383,-1.77647 -3.6529,-3.7817 -2.57593,-2.571 -3.77681,-3.59829 -4.07331,-3.48452 -0.76945,0.29527 -2.63338,-0.42172 -3.67475,-1.41355 -1.87966,-1.79025 -2.00692,-4.40793 -0.3122,-6.42199 0.88679,-1.05388 2.08127,-1.56345 3.66495,-1.56345 2.50804,0 4.34954,1.80104 4.54878,4.44883 l 0.1132,1.5043 3.21048,3.24115 c 1.76576,1.78263 3.30156,3.24114 3.41288,3.24114 0.11133,0 0.20241,-6.36742 0.20241,-14.14983 v -14.14983 l -1.01724,-0.51896 c -4.22084,-2.15331 -4.64493,-8.42103 -0.75105,-11.10009 3.45802,-2.37919 7.91128,-1.23483 9.80089,2.51854 1.46697,2.91386 0.28725,6.74518 -2.59748,8.43575 l -1.20179,0.70429 v 18.49569 18.49569 H 117.58693 97.653357 l -0.286542,0.62889 c -0.484346,1.06303 -1.942895,2.54956 -3.061484,3.12022 -1.158854,0.5912 -3.620431,0.86354 -4.676127,0.51735 z m -1.585787,-21.09819 c -8.051273,-0.96981 -13.537348,-2.67842 -16.139469,-5.02658 -1.684205,-1.51983 -1.852198,-2.12826 -1.852198,-6.70819 0,-2.18749 0.04596,-3.97725 0.102141,-3.97725 0.05618,0 0.800319,0.46591 1.653646,1.03536 4.899111,3.26928 13.859406,5.03248 23.908797,4.70473 8.692686,-0.2835 15.727146,-2.03654 20.042186,-4.99464 l 1.12448,-0.77087 v 4.52323 4.52322 l -1.25677,1.24417 c -2.13858,2.11715 -6.45113,3.83035 -12.23161,4.85914 -2.29701,0.40881 -4.449773,0.56179 -8.736619,0.62085 -3.128698,0.0431 -6.105261,0.0282 -6.614584,-0.0332 z m 0.63558,-12.28907 c -9.657629,-0.74425 -17.774606,-3.98839 -18.451874,-7.37473 -0.09646,-0.48227 -0.175373,-2.60252 -0.175373,-4.71165 v -3.83479 l 0.902424,0.68831 c 8.176864,6.2368 30.950796,7.19182 42.092366,1.76514 1.16417,-0.56703 2.50362,-1.28905 2.97657,-1.60449 l 0.85989,-0.57354 v 4.29423 c 0,5.00306 -0.14775,5.42116 -2.45702,6.95264 -3.56997,2.36757 -8.94601,3.8095 -16.432963,4.40756 -3.755264,0.29997 -5.327938,0.2985 -9.31402,-0.009 z m 0.0724,-12.17405 c -8.303134,-0.63526 -15.884626,-3.23052 -17.967416,-6.15051 -0.556497,-0.78019 -0.606404,-1.16557 -0.689177,-5.32188 l -0.08924,-4.48079 0.884337,0.67452 c 6.761412,5.15718 23.858563,6.91776 36.564679,3.76524 3.13318,-0.77737 6.08894,-1.97212 7.90887,-3.19684 0.73584,-0.49518 1.40853,-0.94429 1.49487,-0.998 0.0863,-0.0537 0.0974,1.94508 0.0247,4.44178 -0.14714,5.04917 -0.24407,5.36006 -2.06307,6.61706 -5.04092,3.48349 -15.92808,5.42526 -26.068527,4.64942 z m 1.01181,-12.19014 c -9.476116,-0.47233 -17.430493,-3.23383 -19.139735,-6.6447 -0.542193,-1.08197 -0.580815,-1.35044 -0.311615,-2.16613 1.095286,-3.31875 8.644336,-6.18656 18.534555,-7.0411 11.584608,-1.00095 24.899838,2.01463 27.504528,6.2291 0.87052,1.40854 0.70945,2.60221 -0.53303,3.95014 -3.67201,3.98365 -14.15423,6.26587 -26.054703,5.67269 z"
       id="path1" /></g></svg>
